<?xml version="1.0" encoding="UTF-8"?>
<svg xmlns="http://www.w3.org/2000/svg" id="Layer_1" data-name="Layer 1" viewBox="0 0 24 24">
  <path d="M22.124,12.238c-.026-.007-.132-.037-.311-.082,.129-.379,.236-.793,.321-1.249,.66-3.52-.736-5.553-4.267-6.216-.22-.041-.432-.075-.638-.101-.682-2.112-2.668-3.589-4.93-3.589-1.971,0-3.737,1.106-4.612,2.821-2.249-.336-4.41,.274-5.026,.885-.776,.771-1.681,4.469-.125,7.364-.391,.093-.622,.157-.661,.168-.432,.121-.731,.514-.731,.963v2.66c0,3.448,3.048,7.139,7.584,7.139h6.541c4.685,0,7.584-3.706,7.584-7.139v-2.66c0-.449-.299-.842-.731-.963Zm-1.956-1.699c-.084,.45-.194,.847-.327,1.186-.846-.161-1.892-.332-3.083-.471-.038-.665,.396-1.287,1.061-1.458,.535-.137,.857-.683,.719-1.217-.137-.535-.681-.857-1.217-.719-1.504,.387-2.518,1.726-2.564,3.209-.395-.027-.799-.05-1.213-.066,.016-.336,.015-1.458,.06-1.698,.246-1.311,.68-2.128,1.327-2.498,.568-.324,1.383-.372,2.566-.149,2.129,.399,3.185,1.137,2.67,3.882ZM12.3,3c1.175,0,2.229,.65,2.779,1.636-.414,.091-.791,.235-1.139,.433-.647,.369-1.164,.913-1.56,1.641-.248-.377-.532-.729-.853-1.048-.559-.557-1.192-.971-1.858-1.271,.581-.857,1.556-1.392,2.63-1.392ZM4.086,6.139c.698-.323,4.035-1.045,6.03,.941,1.295,1.29,1.464,2.92,1.426,3.894-.359,.004-.713,.013-1.061,.027l-3.012-2.925c-.396-.385-1.029-.375-1.414,.021-.385,.396-.375,1.029,.021,1.414l1.732,1.682c-1.208,.125-2.287,.287-3.182,.447-1.505-2.022-.829-4.874-.54-5.5ZM20.855,15.861c0,2.482-2.244,5.139-5.584,5.139h-6.541c-3.291,0-5.584-2.708-5.584-5.139v-1.877c1.448-.333,4.883-1.013,8.855-1.013s7.407,.679,8.855,1.013v1.877Z"/>
</svg>
